# xmcd
#
# Track frame offsets:
#	150
#	9652
#	22774
#	35576
#	50180
#	63246
#	80265
#	92586
#	105067
#	118786
#	136088
#	148822
#	163684
#
# Disc length: 2414 seconds
#
# Revision: 0
# Processed by: cddbd v1.5.2PL0 Copyright (c) Steve Scherf et al.
# Submitted via: EasyCDDAExtractor 11.1.0.1
#
DISCID=9f096c0d
DTITLE=Horsens Hardy - Vagabond på deltid
DYEAR=1900
DGENRE=country
TTITLE0=Vagabond på deltid
TTITLE1=Hun er sku dejlig min kvinde
TTITLE2=Giv mig lyst giv mig lov
TTITLE3=Vort lille band
TTITLE4=Far kom hjem
TTITLE5=Ordre fra bossen
TTITLE6=Fem røde roser
TTITLE7=Den gamle vagabond
TTITLE8=Du skred
TTITLE9=Se på verdens historie
TTITLE10=Stop den skøre karrusel
TTITLE11=Gamle ven
TTITLE12=Cowboyvisen
EXTD=
EXTT0=
EXTT1=
EXTT2=
EXTT3=
EXTT4=
EXTT5=
EXTT6=
EXTT7=
EXTT8=
EXTT9=
EXTT10=
EXTT11=
EXTT12=
PLAYORDER=
